<svg xmlns="http://www.w3.org/2000/svg" font-family="Inter, system-ui, sans-serif" viewBox="0 0 720 280"><style>.colhead{font-size:10px;font-weight:600;fill:#555;letter-spacing:.05em;text-transform:uppercase;font-family:&quot;JetBrains Mono&quot;,ui-monospace,monospace}.cell,.species{font-family:&quot;Source Serif Pro&quot;,Georgia,serif}.species{font-size:13px;font-style:italic;fill:#2563eb}.cell{font-size:12.5px;fill:#1a1a1a}.cell-secondary{font-size:10.5px;fill:#6b6b6b;font-family:&quot;JetBrains Mono&quot;,ui-monospace,monospace}.scent{font-size:12.5px;fill:#444;font-family:&quot;Source Serif Pro&quot;,Georgia,serif;font-style:italic}.rule-major{stroke:#1a1a1a;stroke-width:1;fill:none}.arrow{fill:none}.rule-minor{stroke:#ccc;stroke-width:.5;fill:none}.arrow{stroke:#888;stroke-width:1}</style><defs><marker id="arr" markerHeight="6" markerWidth="6" orient="auto" refX="5" refY="3"><path fill="#888" d="m0 0 6 3-6 3z"/></marker></defs><text x="20" y="22" style="font-size:14px;font-weight:600;fill:#1a1a1a">Mikrobielle Hauptproduzenten flüchtiger organischer Verbindungen (VOCs)</text><path d="M20 40h680" class="rule-major"/><text x="22" y="56" class="colhead">Spezies</text><text x="220" y="56" class="colhead">Substrat</text><text x="400" y="56" class="colhead">Produkt</text><text x="580" y="56" class="colhead">Geruchsprofil</text><path d="M20 64h680" class="rule-minor"/><path marker-end="url(#arr)" d="M378 52h14" class="arrow"/><path marker-end="url(#arr)" d="M558 52h14" class="arrow"/><text x="22" y="92" class="species">Staphylococcus hominis</text><text x="220" y="92" class="cell">Glycin-Cystein-Konjugate</text><text x="400" y="88" class="cell">Volatile Schwefel-</text><text x="400" y="102" class="cell">verbindungen</text><text x="400" y="116" class="cell-secondary">3M3H</text><text x="580" y="92" class="scent">zwiebelartig</text><path d="M20 128h680" class="rule-minor"/><text x="22" y="148" class="species">Corynebacterium spp.</text><text x="220" y="148" class="cell">apokrine Sekrete</text><text x="400" y="144" class="cell">3-Methyl-2-</text><text x="400" y="158" class="cell">hexensäure</text><text x="400" y="172" class="cell-secondary">3M2H</text><text x="580" y="148" class="scent">ziegenartig</text><path d="M20 184h680" class="rule-minor"/><text x="22" y="204" class="species">Cutibacterium spp.</text><text x="220" y="204" class="cell">Glycerin, Milchsäure</text><text x="400" y="204" class="cell">Essig-, Propionsäure</text><text x="580" y="204" class="scent">sauer, käseartig</text><path d="M20 220h680" class="rule-minor"/><text x="22" y="240" class="species">Staphylococcus epidermidis</text><text x="220" y="240" class="cell">Leucin</text><text x="400" y="240" class="cell">Isovaleriansäure</text><text x="580" y="240" class="scent">käseartig, fußartig</text><path d="M20 256h680" class="rule-major"/><text x="20" y="272" class="cell-secondary" font-size="9.5">Nach: ASM (2021), Frontiers Ecol Evol (2023)</text></svg>
